<?xml version="1.0" encoding="UTF-8" standalone="no"?>
<svg
   width="35.224895mm"
   height="41.118179mm"
   viewBox="0 0 35.224895 41.118179"
   version="1.1"
   id="petal-matrix"
   sodipodi:docname="petal-matrix.svg"
   inkscape:version="1.3.2 (091e20e, 2023-11-25)"
   xmlns:inkscape="http://www.inkscape.org/namespaces/inkscape"
   xmlns:sodipodi="http://sodipodi.sourceforge.net/DTD/sodipodi-0.dtd"
   xmlns="http://www.w3.org/2000/svg"
   xmlns:svg="http://www.w3.org/2000/svg"
   xmlns:xhtml="http://www.w3.org/1999/xhtml">
  <sodipodi:namedview
     id="namedview1"
     pagecolor="#ffffff"
     bordercolor="#000000"
     borderopacity="0.25"
     inkscape:showpageshadow="2"
     inkscape:pageopacity="0.0"
     inkscape:pagecheckerboard="0"
     inkscape:deskcolor="#d1d1d1"
     inkscape:document-units="mm"
     inkscape:zoom="5.847663"
     inkscape:cx="43.436156"
     inkscape:cy="65.838268"
     inkscape:window-width="2056"
     inkscape:window-height="1199"
     inkscape:window-x="0"
     inkscape:window-y="44"
     inkscape:window-maximized="0"
     inkscape:current-layer="petal-matrix"
     showguides="true">
    <sodipodi:guide
       position="17.034003,48.659551"
       orientation="0,-1"
       id="guide5"
       inkscape:locked="false" />
  </sodipodi:namedview>
  <xhtml:link
     rel="stylesheet"
     href="petal-matrix.css"
     type="text/css" />
  <defs
     id="clipPaths">
    <clipPath
       clipPathUnits="userSpaceOnUse"
       id="clipPath3200-9">
      <path
         d="M 50,70 H 1230 V 1660 H 50 Z"
         id="path3200-0" />
    </clipPath>
    <clipPath
       clipPathUnits="userSpaceOnUse"
       id="clipPath3202-1">
      <path
         d="M 50,70 H 1230 V 1660 H 50 Z"
         id="path3202-6" />
    </clipPath>
    <clipPath
       clipPathUnits="userSpaceOnUse"
       id="clipPath3204-4">
      <path
         d="M 50,70 H 1230 V 1660 H 50 Z"
         id="path3204-4" />
    </clipPath>
    <clipPath
       clipPathUnits="userSpaceOnUse"
       id="clipPath3206-8">
      <path
         d="M 50,70 H 1230 V 1660 H 50 Z"
         id="path3206-6" />
    </clipPath>
    <clipPath
       clipPathUnits="userSpaceOnUse"
       id="clipPath3208-1">
      <path
         d="M 50,70 H 1230 V 1660 H 50 Z"
         id="path3208-4" />
    </clipPath>
    <clipPath
       clipPathUnits="userSpaceOnUse"
       id="clipPath3210-0">
      <path
         d="M 50,70 H 1230 V 1660 H 50 Z"
         id="path3210-8" />
    </clipPath>
    <clipPath
       clipPathUnits="userSpaceOnUse"
       id="clipPath3212-1">
      <path
         d="M 50,70 H 1230 V 1660 H 50 Z"
         id="path3212-0" />
    </clipPath>
    <clipPath
       clipPathUnits="userSpaceOnUse"
       id="clipPath3214-3">
      <path
         d="M 50,70 H 1230 V 1660 H 50 Z"
         id="path3214-1" />
    </clipPath>
    <clipPath
       clipPathUnits="userSpaceOnUse"
       id="clipPath3216-1">
      <path
         d="M 50,70 H 1230 V 1660 H 50 Z"
         id="path3216-5" />
    </clipPath>
    <clipPath
       clipPathUnits="userSpaceOnUse"
       id="clipPath3218-0">
      <path
         d="M 50,70 H 1230 V 1660 H 50 Z"
         id="path3218-8" />
    </clipPath>
    <clipPath
       clipPathUnits="userSpaceOnUse"
       id="clipPath3220-4">
      <path
         d="M 50,70 H 1230 V 1660 H 50 Z"
         id="path3220-9" />
    </clipPath>
    <clipPath
       clipPathUnits="userSpaceOnUse"
       id="clipPath3222-3">
      <path
         d="M 50,70 H 1230 V 1660 H 50 Z"
         id="path3222-0" />
    </clipPath>
    <clipPath
       clipPathUnits="userSpaceOnUse"
       id="clipPath3224-5">
      <path
         d="M 50,70 H 1230 V 1660 H 50 Z"
         id="path3224-2" />
    </clipPath>
    <clipPath
       clipPathUnits="userSpaceOnUse"
       id="clipPath3226-3">
      <path
         d="M 50,70 H 1230 V 1660 H 50 Z"
         id="path3226-8" />
    </clipPath>
    <clipPath
       clipPathUnits="userSpaceOnUse"
       id="clipPath3228-7">
      <path
         d="M 50,70 H 1230 V 1660 H 50 Z"
         id="path3228-8" />
    </clipPath>
    <clipPath
       clipPathUnits="userSpaceOnUse"
       id="clipPath3230-0">
      <path
         d="M 50,70 H 1230 V 1660 H 50 Z"
         id="path3230-4" />
    </clipPath>
    <clipPath
       clipPathUnits="userSpaceOnUse"
       id="clipPath3232-5">
      <path
         d="M 50,70 H 1230 V 1660 H 50 Z"
         id="path3232-7" />
    </clipPath>
    <clipPath
       clipPathUnits="userSpaceOnUse"
       id="clipPath3234-1">
      <path
         d="M 50,70 H 1230 V 1660 H 50 Z"
         id="path3234-0" />
    </clipPath>
    <clipPath
       clipPathUnits="userSpaceOnUse"
       id="clipPath3236-6">
      <path
         d="M 50,70 H 1230 V 1660 H 50 Z"
         id="path3236-0" />
    </clipPath>
    <clipPath
       clipPathUnits="userSpaceOnUse"
       id="clipPath3238-3">
      <path
         d="M 50,70 H 1230 V 1660 H 50 Z"
         id="path3238-3" />
    </clipPath>
    <clipPath
       clipPathUnits="userSpaceOnUse"
       id="clipPath3240-5">
      <path
         d="M 50,70 H 1230 V 1660 H 50 Z"
         id="path3240-0" />
    </clipPath>
    <clipPath
       clipPathUnits="userSpaceOnUse"
       id="clipPath3242-2">
      <path
         d="M 50,70 H 1230 V 1660 H 50 Z"
         id="path3242-3" />
    </clipPath>
    <clipPath
       clipPathUnits="userSpaceOnUse"
       id="clipPath3244-2">
      <path
         d="M 50,70 H 1230 V 1660 H 50 Z"
         id="path3244-7" />
    </clipPath>
    <clipPath
       clipPathUnits="userSpaceOnUse"
       id="clipPath3246-1">
      <path
         d="M 50,70 H 1230 V 1660 H 50 Z"
         id="path3246-0" />
    </clipPath>
    <clipPath
       clipPathUnits="userSpaceOnUse"
       id="clipPath3248-0">
      <path
         d="M 50,70 H 1230 V 1660 H 50 Z"
         id="path3248-9" />
    </clipPath>
    <clipPath
       clipPathUnits="userSpaceOnUse"
       id="clipPath3250-7">
      <path
         d="M 50,70 H 1230 V 1660 H 50 Z"
         id="path3250-1" />
    </clipPath>
    <clipPath
       clipPathUnits="userSpaceOnUse"
       id="clipPath3252-7">
      <path
         d="M 50,70 H 1230 V 1660 H 50 Z"
         id="path3252-4" />
    </clipPath>
    <clipPath
       clipPathUnits="userSpaceOnUse"
       id="clipPath3254-5">
      <path
         d="M 50,70 H 1230 V 1660 H 50 Z"
         id="path3254-1" />
    </clipPath>
    <clipPath
       clipPathUnits="userSpaceOnUse"
       id="clipPath3256-7">
      <path
         d="M 50,70 H 1230 V 1660 H 50 Z"
         id="path3256-8" />
    </clipPath>
    <clipPath
       clipPathUnits="userSpaceOnUse"
       id="clipPath3258-2">
      <path
         d="M 50,70 H 1230 V 1660 H 50 Z"
         id="path3258-5" />
    </clipPath>
    <clipPath
       clipPathUnits="userSpaceOnUse"
       id="clipPath3260-4">
      <path
         d="M 50,70 H 1230 V 1660 H 50 Z"
         id="path3260-5" />
    </clipPath>
    <clipPath
       clipPathUnits="userSpaceOnUse"
       id="clipPath3262-3">
      <path
         d="M 50,70 H 1230 V 1660 H 50 Z"
         id="path3262-0" />
    </clipPath>
    <clipPath
       clipPathUnits="userSpaceOnUse"
       id="clipPath3264-1">
      <path
         d="M 50,70 H 1230 V 1660 H 50 Z"
         id="path3264-9" />
    </clipPath>
    <clipPath
       clipPathUnits="userSpaceOnUse"
       id="clipPath3266-4">
      <path
         d="M 50,70 H 1230 V 1660 H 50 Z"
         id="path3266-5" />
    </clipPath>
    <clipPath
       clipPathUnits="userSpaceOnUse"
       id="clipPath3268-9">
      <path
         d="M 50,70 H 1230 V 1660 H 50 Z"
         id="path3268-3" />
    </clipPath>
    <clipPath
       clipPathUnits="userSpaceOnUse"
       id="clipPath3270-9">
      <path
         d="M 50,70 H 1230 V 1660 H 50 Z"
         id="path3270-6" />
    </clipPath>
    <clipPath
       clipPathUnits="userSpaceOnUse"
       id="clipPath3272-6">
      <path
         d="M 50,70 H 1230 V 1660 H 50 Z"
         id="path3272-4" />
    </clipPath>
    <clipPath
       clipPathUnits="userSpaceOnUse"
       id="clipPath3274-0">
      <path
         d="M 50,70 H 1230 V 1660 H 50 Z"
         id="path3274-8" />
    </clipPath>
    <clipPath
       clipPathUnits="userSpaceOnUse"
       id="clipPath3276-2">
      <path
         d="M 50,70 H 1230 V 1660 H 50 Z"
         id="path3276-0" />
    </clipPath>
    <clipPath
       clipPathUnits="userSpaceOnUse"
       id="clipPath3278-6">
      <path
         d="M 50,70 H 1230 V 1660 H 50 Z"
         id="path3278-0" />
    </clipPath>
    <clipPath
       clipPathUnits="userSpaceOnUse"
       id="clipPath3280-7">
      <path
         d="M 50,70 H 1230 V 1660 H 50 Z"
         id="path3280-2" />
    </clipPath>
    <clipPath
       clipPathUnits="userSpaceOnUse"
       id="clipPath3282-9">
      <path
         d="M 50,70 H 1230 V 1660 H 50 Z"
         id="path3282-8" />
    </clipPath>
    <clipPath
       clipPathUnits="userSpaceOnUse"
       id="clipPath3284-1">
      <path
         d="M 50,70 H 1230 V 1660 H 50 Z"
         id="path3284-1" />
    </clipPath>
    <clipPath
       clipPathUnits="userSpaceOnUse"
       id="clipPath3286-6">
      <path
         d="M 50,70 H 1230 V 1660 H 50 Z"
         id="path3286-1" />
    </clipPath>
    <clipPath
       clipPathUnits="userSpaceOnUse"
       id="clipPath3288-1">
      <path
         d="M 50,70 H 1230 V 1660 H 50 Z"
         id="path3288-8" />
    </clipPath>
    <clipPath
       clipPathUnits="userSpaceOnUse"
       id="clipPath3290-1">
      <path
         d="M 50,70 H 1230 V 1660 H 50 Z"
         id="path3290-1" />
    </clipPath>
    <clipPath
       clipPathUnits="userSpaceOnUse"
       id="clipPath3292-5">
      <path
         d="M 50,70 H 1230 V 1660 H 50 Z"
         id="path3292-0" />
    </clipPath>
    <clipPath
       clipPathUnits="userSpaceOnUse"
       id="clipPath3294-0">
      <path
         d="M 50,70 H 1230 V 1660 H 50 Z"
         id="path3294-8" />
    </clipPath>
    <clipPath
       clipPathUnits="userSpaceOnUse"
       id="clipPath3296-3">
      <path
         d="M 50,70 H 1230 V 1660 H 50 Z"
         id="path3296-7" />
    </clipPath>
    <clipPath
       clipPathUnits="userSpaceOnUse"
       id="clipPath3298-0">
      <path
         d="M 50,70 H 1230 V 1660 H 50 Z"
         id="path3298-1" />
    </clipPath>
    <clipPath
       clipPathUnits="userSpaceOnUse"
       id="clipPath3300-3">
      <path
         d="M 50,70 H 1230 V 1660 H 50 Z"
         id="path3300-4" />
    </clipPath>
    <clipPath
       clipPathUnits="userSpaceOnUse"
       id="clipPath3302-3">
      <path
         d="M 50,70 H 1230 V 1660 H 50 Z"
         id="path3302-7" />
    </clipPath>
    <clipPath
       clipPathUnits="userSpaceOnUse"
       id="clipPath3304-7">
      <path
         d="M 50,70 H 1230 V 1660 H 50 Z"
         id="path3304-5" />
    </clipPath>
    <clipPath
       clipPathUnits="userSpaceOnUse"
       id="clipPath3306-1">
      <path
         d="M 50,70 H 1230 V 1660 H 50 Z"
         id="path3306-2" />
    </clipPath>
    <clipPath
       clipPathUnits="userSpaceOnUse"
       id="clipPath3308-6">
      <path
         d="M 50,70 H 1230 V 1660 H 50 Z"
         id="path3308-6" />
    </clipPath>
    <clipPath
       clipPathUnits="userSpaceOnUse"
       id="clipPath3310-5">
      <path
         d="M 50,70 H 1230 V 1660 H 50 Z"
         id="path3310-4" />
    </clipPath>
  </defs>
  <g
     id="layer1"
     transform="translate(-56.620833,-124.35417)"
     style="stroke-width:0.26458333;stroke-dasharray:none">
    <g
       id="spiral-leds"
       style="display:inline;stroke-width:1.00000001;stroke-dasharray:none"
       transform="matrix(0.26458333,0,0,0.26458333,51.461141,-99.009816)">
      <path
         class="spiral-led"
         id="led-7-1"
         data-row="7"
         data-col="1"
         d="m 710.59,1163.32 c 0,45.51 -68.289,45.51 -68.289,0 0,-45.51 68.289,-45.51 68.289,0"
         transform="matrix(0.13333333,0,0,-0.13333333,0,1056)"
         clip-path="url(#clipPath3242-2)"
         style="fill:#fff99c;fill-opacity:1;stroke:#000000;stroke-opacity:1;stroke-width:7.50000028;stroke-dasharray:none" />
      <path
         class="spiral-led"
         id="led-7-2"
         data-row="7"
         data-col="2"
         d="m 815,1231.72 c 0,45.51 -68.281,45.51 -68.281,0 0,-45.51 68.281,-45.51 68.281,0"
         transform="matrix(0.13333333,0,0,-0.13333333,0,1056)"
         clip-path="url(#clipPath3244-2)"
         style="fill:#fff99c;fill-opacity:1;stroke:#000000;stroke-opacity:1;stroke-width:7.50000028;stroke-dasharray:none" />
      <path
         class="spiral-led"
         id="led-7-3"
         data-row="7"
         data-col="3"
         d="m 948.91,1215.9 c 0,45.51 -68.281,45.51 -68.281,0 0,-45.55 68.281,-45.55 68.281,0"
         transform="matrix(0.13333333,0,0,-0.13333333,0,1056)"
         clip-path="url(#clipPath3246-1)"
         style="fill:#fff99c;fill-opacity:1;stroke:#000000;stroke-opacity:1;stroke-width:7.50000028;stroke-dasharray:none" />
      <path
         class="spiral-led"
         id="led-7-4"
         data-row="7"
         data-col="4"
         d="m 1047.54,1138.83 c 0,45.54 -68.239,45.54 -68.239,0 0,-45.51 68.239,-45.51 68.239,0"
         transform="matrix(0.13333333,0,0,-0.13333333,0,1056)"
         clip-path="url(#clipPath3248-0)"
         style="fill:#fff99c;fill-opacity:1;stroke:#000000;stroke-opacity:1;stroke-width:7.50000028;stroke-dasharray:none" />
      <path
         class="spiral-led"
         id="led-7-5"
         data-row="7"
         data-col="5"
         d="m 1115.94,1038.05 c 0,45.5 -68.24,45.5 -68.24,0 0,-45.511 68.24,-45.511 68.24,0"
         transform="matrix(0.13333333,0,0,-0.13333333,0,1056)"
         clip-path="url(#clipPath3250-7)"
         style="fill:#fff99c;fill-opacity:1;stroke:#000000;stroke-opacity:1;stroke-width:7.50000028;stroke-dasharray:none" />
      <path
         class="spiral-led"
         id="led-7-6"
         data-row="7"
         data-col="6"
         d="m 1143.32,913.48 c 0,45.5 -68.28,45.5 -68.28,0 0,-45.511 68.28,-45.511 68.28,0"
         transform="matrix(0.13333333,0,0,-0.13333333,0,1056)"
         clip-path="url(#clipPath3252-7)"
         style="fill:#fff99c;fill-opacity:1;stroke:#000000;stroke-opacity:1;stroke-width:7.50000028;stroke-dasharray:none" />
      <path
         class="spiral-led"
         id="led-7-7"
         data-row="7"
         data-col="7"
         d="m 1138.28,778.121 c 0,45.508 -68.28,45.508 -68.28,0 0,-45.5 68.28,-45.5 68.28,0"
         transform="matrix(0.13333333,0,0,-0.13333333,0,1056)"
         clip-path="url(#clipPath3254-5)"
         style="fill:#fff99c;fill-opacity:1;stroke:#000000;stroke-opacity:1;stroke-width:7.50000028;stroke-dasharray:none" />
      <path
         class="spiral-led"
         id="led-6-1"
         data-row="6"
         data-col="1"
         d="m 812.109,1094.92 c 0,45.51 -68.281,45.51 -68.281,0 0,-45.51 68.281,-45.51 68.281,0"
         transform="matrix(0.13333333,0,0,-0.13333333,0,1056)"
         clip-path="url(#clipPath3286-6)"
         style="fill:#fff99c;fill-opacity:1;stroke:#000000;stroke-opacity:1;stroke-width:7.50000028;stroke-dasharray:none" />
      <path
         class="spiral-led"
         id="led-6-2"
         data-row="6"
         data-col="2"
         d="m 930.898,1067.58 c 0,45.51 -68.238,45.51 -68.238,0 0,-45.55 68.238,-45.55 68.238,0"
         transform="matrix(0.13333333,0,0,-0.13333333,0,1056)"
         clip-path="url(#clipPath3284-1)"
         style="fill:#fff99c;fill-opacity:1;stroke:#000000;stroke-opacity:1;stroke-width:7.50000028;stroke-dasharray:none" />
      <path
         class="spiral-led"
         id="led-6-3"
         data-row="6"
         data-col="3"
         d="m 995.699,959.57 c 0,45.51 -68.238,45.51 -68.238,0 0,-45.511 68.238,-45.511 68.238,0"
         transform="matrix(0.13333333,0,0,-0.13333333,0,1056)"
         clip-path="url(#clipPath3290-1)"
         style="fill:#fff99c;fill-opacity:1;stroke:#000000;stroke-opacity:1;stroke-width:7.50000028;stroke-dasharray:none" />
      <path
         class="spiral-led"
         id="led-6-4"
         data-row="6"
         data-col="4"
         d="m 1011.56,830.66 c 0,45.551 -68.279,45.551 -68.279,0 0,-45.5 68.279,-45.5 68.279,0"
         transform="matrix(0.13333333,0,0,-0.13333333,0,1056)"
         clip-path="url(#clipPath3294-0)"
         style="fill:#fff99c;fill-opacity:1;stroke:#000000;stroke-opacity:1;stroke-width:7.50000028;stroke-dasharray:none" />
      <path
         class="spiral-led"
         id="led-6-5"
         data-row="6"
         data-col="5"
         d="m 1000.04,700.352 c 0,45.507 -68.278,45.507 -68.278,0 0,-45.512 68.278,-45.512 68.278,0"
         transform="matrix(0.13333333,0,0,-0.13333333,0,1056)"
         clip-path="url(#clipPath3296-3)"
         style="fill:#fff99c;fill-opacity:1;stroke:#000000;stroke-opacity:1;stroke-width:7.50000028;stroke-dasharray:none" />
      <path
         class="spiral-led"
         id="led-6-6"
         data-row="6"
         data-col="6"
         d="m 961.879,570.039 c 0,45.512 -68.289,45.512 -68.289,0 0,-45.508 68.289,-45.508 68.289,0"
         transform="matrix(0.13333333,0,0,-0.13333333,0,1056)"
         clip-path="url(#clipPath3308-6)"
         style="fill:#fff99c;fill-opacity:1;stroke:#000000;stroke-opacity:1;stroke-width:7.50000028;stroke-dasharray:none" />
      <path
         class="spiral-led"
         id="led-6-7"
         data-row="6"
         data-col="7"
         d="m 884.102,458.441 c 0,45.508 -68.243,45.508 -68.243,0 0,-45.511 68.243,-45.511 68.243,0"
         transform="matrix(0.13333333,0,0,-0.13333333,0,1056)"
         clip-path="url(#clipPath3310-5)"
         style="fill:#fff99c;fill-opacity:1;stroke:#000000;stroke-opacity:1;stroke-width:7.50000028;stroke-dasharray:none" />
      <path
         class="spiral-led"
         id="led-5-1"
         data-row="5"
         data-col="1"
         d="m 822.191,973.238 c 0,45.512 -68.281,45.512 -68.281,0 0,-45.508 68.281,-45.508 68.281,0"
         transform="matrix(0.13333333,0,0,-0.13333333,0,1056)"
         clip-path="url(#clipPath3288-1)"
         style="fill:#fff99c;fill-opacity:1;stroke:#000000;stroke-opacity:1;stroke-width:7.50000028;stroke-dasharray:none" />
      <path
         class="spiral-led"
         id="led-5-2"
         data-row="5"
         data-col="2"
         d="m 887.34,861.328 c 0,45.512 -68.281,45.512 -68.281,0 0,-45.508 68.281,-45.508 68.281,0"
         transform="matrix(0.13333333,0,0,-0.13333333,0,1056)"
         clip-path="url(#clipPath3292-5)"
         style="fill:#fff99c;fill-opacity:1;stroke:#000000;stroke-opacity:1;stroke-width:7.50000028;stroke-dasharray:none" />
      <path
         class="spiral-led"
         id="led-5-3"
         data-row="5"
         data-col="3"
         d="m 866.09,725.551 c 0,45.539 -68.238,45.539 -68.238,0 0,-45.512 68.238,-45.512 68.238,0"
         transform="matrix(0.13333333,0,0,-0.13333333,0,1056)"
         clip-path="url(#clipPath3298-0)"
         style="fill:#fff99c;fill-opacity:1;stroke:#000000;stroke-opacity:1;stroke-width:7.50000028;stroke-dasharray:none" />
      <path
         class="spiral-led"
         id="led-5-4"
         data-row="5"
         data-col="4"
         d="m 799.141,617.582 c 0,45.508 -68.243,45.508 -68.243,0 0,-45.551 68.243,-45.551 68.243,0"
         transform="matrix(0.13333333,0,0,-0.13333333,0,1056)"
         clip-path="url(#clipPath3306-1)"
         style="fill:#fff99c;fill-opacity:1;stroke:#000000;stroke-opacity:1;stroke-width:7.50000028;stroke-dasharray:none" />
      <path
         class="spiral-led"
         id="led-5-5"
         data-row="5"
         data-col="5"
         d="m 709.879,534.77 c 0,45.5 -68.277,45.5 -68.277,0 0,-45.508 68.277,-45.508 68.277,0"
         transform="matrix(0.13333333,0,0,-0.13333333,0,1056)"
         clip-path="url(#clipPath3304-7)"
         style="fill:#fff99c;fill-opacity:1;stroke:#000000;stroke-opacity:1;stroke-width:7.50000028;stroke-dasharray:none" />
      <path
         class="spiral-led"
         id="led-5-6"
         data-row="5"
         data-col="6"
         d="m 588.91,490.859 c 0,45.512 -68.281,45.512 -68.281,0 0,-45.55 68.281,-45.55 68.281,0"
         transform="matrix(0.13333333,0,0,-0.13333333,0,1056)"
         clip-path="url(#clipPath3302-3)"
         style="fill:#fff99c;fill-opacity:1;stroke:#000000;stroke-opacity:1;stroke-width:7.50000028;stroke-dasharray:none" />
      <path
         class="spiral-led"
         id="led-5-7"
         data-row="5"
         data-col="7"
         d="m 459.301,479.34 c 0,45.5 -68.25,45.5 -68.25,0 0,-45.512 68.25,-45.512 68.25,0"
         transform="matrix(0.13333333,0,0,-0.13333333,0,1056)"
         clip-path="url(#clipPath3300-3)"
         style="fill:#fff99c;fill-opacity:1;stroke:#000000;stroke-opacity:1;stroke-width:7.50000028;stroke-dasharray:none" />
      <path
         class="spiral-led"
         id="led-4-1"
         data-row="4"
         data-col="1"
         d="m 768.91,863.09 c 0,45.5 -68.281,45.5 -68.281,0 0,-45.512 68.281,-45.512 68.281,0"
         transform="matrix(0.13333333,0,0,-0.13333333,0,1056)"
         clip-path="url(#clipPath3282-9)"
         style="fill:#fff99c;fill-opacity:1;stroke:#000000;stroke-opacity:1;stroke-width:7.50000028;stroke-dasharray:none" />
      <path
         class="spiral-led"
         id="led-4-2"
         data-row="4"
         data-col="2"
         d="m 725,752.93 c 0,45.511 -68.281,45.511 -68.281,0 0,-45.508 68.281,-45.508 68.281,0"
         transform="matrix(0.13333333,0,0,-0.13333333,0,1056)"
         clip-path="url(#clipPath3280-7)"
         style="fill:#fff99c;fill-opacity:1;stroke:#000000;stroke-opacity:1;stroke-width:7.50000028;stroke-dasharray:none" />
      <path
         class="spiral-led"
         id="led-4-3"
         data-row="4"
         data-col="3"
         d="m 635,673.012 c 0,45.508 -68.281,45.508 -68.281,0 0,-45.512 68.281,-45.512 68.281,0"
         transform="matrix(0.13333333,0,0,-0.13333333,0,1056)"
         clip-path="url(#clipPath3278-6)"
         style="fill:#fff99c;fill-opacity:1;stroke:#000000;stroke-opacity:1;stroke-width:7.50000028;stroke-dasharray:none" />
      <path
         class="spiral-led"
         id="led-4-4"
         data-row="4"
         data-col="4"
         d="m 527.699,631.949 c 0,45.512 -68.25,45.512 -68.25,0 0,-45.5 68.25,-45.5 68.25,0"
         transform="matrix(0.13333333,0,0,-0.13333333,0,1056)"
         clip-path="url(#clipPath3276-2)"
         style="fill:#fff99c;fill-opacity:1;stroke:#000000;stroke-opacity:1;stroke-width:7.50000028;stroke-dasharray:none" />
      <path
         class="spiral-led"
         id="led-4-5"
         data-row="4"
         data-col="5"
         d="m 411.051,634.141 c 0,45.507 -68.242,45.507 -68.242,0 0,-45.551 68.242,-45.551 68.242,0"
         transform="matrix(0.13333333,0,0,-0.13333333,0,1056)"
         clip-path="url(#clipPath3274-0)"
         style="fill:#fff99c;fill-opacity:1;stroke:#000000;stroke-opacity:1;stroke-width:7.50000028;stroke-dasharray:none" />
      <path
         class="spiral-led"
         id="led-4-6"
         data-row="4"
         data-col="6"
         d="m 300.898,680.941 c 0,45.508 -68.238,45.508 -68.238,0 0,-45.55 68.238,-45.55 68.238,0"
         transform="matrix(0.13333333,0,0,-0.13333333,0,1056)"
         clip-path="url(#clipPath3272-6)"
         style="fill:#fff99c;fill-opacity:1;stroke:#000000;stroke-opacity:1;stroke-width:7.50000028;stroke-dasharray:none" />
      <path
         class="spiral-led"
         id="led-4-7"
         data-row="4"
         data-col="7"
         d="m 227.461,760.859 c 0,45.512 -68.242,45.512 -68.242,0 0,-45.55 68.242,-45.55 68.242,0"
         transform="matrix(0.13333333,0,0,-0.13333333,0,1056)"
         clip-path="url(#clipPath3270-9)"
         style="fill:#fff99c;fill-opacity:1;stroke:#000000;stroke-opacity:1;stroke-width:7.50000028;stroke-dasharray:none" />
      <path
         class="spiral-led"
         id="led-3-1"
         data-row="3"
         data-col="1"
         d="m 648.672,847.969 c 0,45.511 -68.281,45.511 -68.281,0 0,-45.508 68.281,-45.508 68.281,0"
         transform="matrix(0.13333333,0,0,-0.13333333,0,1056)"
         clip-path="url(#clipPath3268-9)"
         style="fill:#fff99c;fill-opacity:1;stroke:#000000;stroke-opacity:1;stroke-width:7.50000028;stroke-dasharray:none" />
      <path
         class="spiral-led"
         id="led-3-2"
         data-row="3"
         data-col="2"
         d="m 544.262,779.57 c 0,45.508 -68.242,45.508 -68.242,0 0,-45.511 68.242,-45.511 68.242,0"
         transform="matrix(0.13333333,0,0,-0.13333333,0,1056)"
         clip-path="url(#clipPath3266-4)"
         style="fill:#fff99c;fill-opacity:1;stroke:#000000;stroke-opacity:1;stroke-width:7.50000028;stroke-dasharray:none" />
      <path
         class="spiral-led"
         id="led-3-3"
         data-row="3"
         data-col="3"
         d="m 410.352,788.199 c 0,45.512 -68.282,45.512 -68.282,0 0,-45.5 68.282,-45.5 68.282,0"
         transform="matrix(0.13333333,0,0,-0.13333333,0,1056)"
         clip-path="url(#clipPath3264-1)"
         style="fill:#fff99c;fill-opacity:1;stroke:#000000;stroke-opacity:1;stroke-width:7.50000028;stroke-dasharray:none" />
      <path
         class="spiral-led"
         id="led-3-4"
         data-row="3"
         data-col="4"
         d="m 311.719,865.23 c 0,45.508 -68.278,45.508 -68.278,0 0,-45.5 68.278,-45.5 68.278,0"
         transform="matrix(0.13333333,0,0,-0.13333333,0,1056)"
         clip-path="url(#clipPath3262-3)"
         style="fill:#fff99c;fill-opacity:1;stroke:#000000;stroke-opacity:1;stroke-width:7.50000028;stroke-dasharray:none" />
      <path
         class="spiral-led"
         id="led-3-5"
         data-row="3"
         data-col="5"
         d="m 243.32,973.238 c 0,45.512 -68.281,45.512 -68.281,0 0,-45.508 68.281,-45.508 68.281,0"
         transform="matrix(0.13333333,0,0,-0.13333333,0,1056)"
         clip-path="url(#clipPath3260-4)"
         style="fill:#fff99c;fill-opacity:1;stroke:#000000;stroke-opacity:1;stroke-width:7.50000028;stroke-dasharray:none" />
      <path
         class="spiral-led"
         id="led-3-6"
         data-row="3"
         data-col="6"
         d="m 215.941,1097.81 c 0,45.51 -68.242,45.51 -68.242,0 0,-45.51 68.242,-45.51 68.242,0"
         transform="matrix(0.13333333,0,0,-0.13333333,0,1056)"
         clip-path="url(#clipPath3258-2)"
         style="fill:#fff99c;fill-opacity:1;stroke:#000000;stroke-opacity:1;stroke-width:7.50000028;stroke-dasharray:none" />
      <path
         class="spiral-led"
         id="led-3-7"
         data-row="3"
         data-col="7"
         d="m 220.98,1228.12 c 0,45.51 -68.25,45.51 -68.25,0 0,-45.5 68.25,-45.5 68.25,0"
         transform="matrix(0.13333333,0,0,-0.13333333,0,1056)"
         clip-path="url(#clipPath3256-7)"
         style="fill:#fff99c;fill-opacity:1;stroke:#000000;stroke-opacity:1;stroke-width:7.50000028;stroke-dasharray:none" />
      <path
         class="spiral-led"
         id="led-2-1"
         data-row="2"
         data-col="1"
         d="m 547.148,916.371 c 0,45.5 -68.277,45.5 -68.277,0 0,-45.512 68.277,-45.512 68.277,0"
         transform="matrix(0.13333333,0,0,-0.13333333,0,1056)"
         clip-path="url(#clipPath3224-5)"
         style="fill:#fff99c;fill-opacity:1;stroke:#000000;stroke-opacity:1;stroke-width:7.50000028;stroke-dasharray:none" />
      <path
         class="spiral-led"
         id="led-2-2"
         data-row="2"
         data-col="2"
         d="m 428.359,943.711 c 0,45.508 -68.281,45.508 -68.281,0 0,-45.512 68.281,-45.512 68.281,0"
         transform="matrix(0.13333333,0,0,-0.13333333,0,1056)"
         clip-path="url(#clipPath3226-3)"
         style="fill:#fff99c;fill-opacity:1;stroke:#000000;stroke-opacity:1;stroke-width:7.50000028;stroke-dasharray:none" />
      <path
         class="spiral-led"
         id="led-2-3"
         data-row="2"
         data-col="3"
         d="m 363.551,1051.72 c 0,45.51 -68.281,45.51 -68.281,0 0,-45.51 68.281,-45.51 68.281,0"
         transform="matrix(0.13333333,0,0,-0.13333333,0,1056)"
         clip-path="url(#clipPath3220-4)"
         style="fill:#fff99c;fill-opacity:1;stroke:#000000;stroke-opacity:1;stroke-width:7.50000028;stroke-dasharray:none" />
      <path
         class="spiral-led"
         id="led-2-4"
         data-row="2"
         data-col="4"
         d="m 347.699,1180.59 c 0,45.54 -68.25,45.54 -68.25,0 0,-45.51 68.25,-45.51 68.25,0"
         transform="matrix(0.13333333,0,0,-0.13333333,0,1056)"
         clip-path="url(#clipPath3216-1)"
         style="fill:#fff99c;fill-opacity:1;stroke:#000000;stroke-opacity:1;stroke-width:7.50000028;stroke-dasharray:none" />
      <path
         class="spiral-led"
         id="led-2-5"
         data-row="2"
         data-col="5"
         d="m 359.219,1310.94 c 0,45.51 -68.239,45.51 -68.239,0 0,-45.55 68.239,-45.55 68.239,0"
         transform="matrix(0.13333333,0,0,-0.13333333,0,1056)"
         clip-path="url(#clipPath3214-3)"
         style="fill:#fff99c;fill-opacity:1;stroke:#000000;stroke-opacity:1;stroke-width:7.50000028;stroke-dasharray:none" />
      <path
         class="spiral-led"
         id="led-2-6"
         data-row="2"
         data-col="6"
         d="m 397.379,1441.25 c 0,45.51 -68.238,45.51 -68.238,0 0,-45.51 68.238,-45.51 68.238,0"
         transform="matrix(0.13333333,0,0,-0.13333333,0,1056)"
         clip-path="url(#clipPath3202-1)"
         style="fill:#fff99c;fill-opacity:1;stroke:#000000;stroke-opacity:1;stroke-width:7.50000028;stroke-dasharray:none" />
      <path
         class="spiral-led"
         id="led-2-7"
         data-row="2"
         data-col="7"
         d="m 475.16,1552.85 c 0,45.51 -68.281,45.51 -68.281,0 0,-45.51 68.281,-45.51 68.281,0"
         transform="matrix(0.13333333,0,0,-0.13333333,0,1056)"
         clip-path="url(#clipPath3200-9)"
         style="fill:#fff99c;fill-opacity:1;stroke:#000000;stroke-opacity:1;stroke-width:7.50000028;stroke-dasharray:none" />
      <path
         class="spiral-led"
         id="led-1-1"
         data-row="1"
         data-col="1"
         d="m 537.07,1038.05 c 0,45.5 -68.281,45.5 -68.281,0 0,-45.511 68.281,-45.511 68.281,0"
         transform="matrix(0.13333333,0,0,-0.13333333,0,1056)"
         clip-path="url(#clipPath3222-3)"
         style="fill:#fff99c;fill-opacity:1;stroke:#000000;stroke-opacity:1;stroke-width:7.50000028;stroke-dasharray:none" />
      <path
         class="spiral-led"
         id="led-1-2"
         data-row="1"
         data-col="2"
         d="m 471.68,1149.96 c 0,45.51 -68.282,45.51 -68.282,0 0,-45.51 68.282,-45.51 68.282,0"
         transform="matrix(0.13333333,0,0,-0.13333333,0,1056)"
         clip-path="url(#clipPath3218-0)"
         style="fill:#fff99c;fill-opacity:1;stroke:#000000;stroke-opacity:1;stroke-width:7.50000028;stroke-dasharray:none" />
      <path
         class="spiral-led"
         id="led-1-3"
         data-row="1"
         data-col="3"
         d="m 493.16,1285.7 c 0,45.55 -68.281,45.55 -68.281,0 0,-45.5 68.281,-45.5 68.281,0"
         transform="matrix(0.13333333,0,0,-0.13333333,0,1056)"
         clip-path="url(#clipPath3212-1)"
         style="fill:#fff99c;fill-opacity:1;stroke:#000000;stroke-opacity:1;stroke-width:7.50000028;stroke-dasharray:none" />
      <path
         class="spiral-led"
         id="led-1-4"
         data-row="1"
         data-col="4"
         d="m 560.121,1393.71 c 0,45.51 -68.281,45.51 -68.281,0 0,-45.51 68.281,-45.51 68.281,0"
         transform="matrix(0.13333333,0,0,-0.13333333,0,1056)"
         clip-path="url(#clipPath3204-4)"
         style="fill:#fff99c;fill-opacity:1;stroke:#000000;stroke-opacity:1;stroke-width:7.50000028;stroke-dasharray:none" />
      <path
         class="spiral-led"
         id="led-1-5"
         data-row="1"
         data-col="5"
         d="m 649.379,1476.52 c 0,45.51 -68.25,45.51 -68.25,0 0,-45.5 68.25,-45.5 68.25,0"
         transform="matrix(0.13333333,0,0,-0.13333333,0,1056)"
         clip-path="url(#clipPath3206-8)"
         style="fill:#fff99c;fill-opacity:1;stroke:#000000;stroke-opacity:1;stroke-width:7.50000028;stroke-dasharray:none" />
      <path
         class="spiral-led"
         id="led-1-6"
         data-row="1"
         data-col="6"
         d="m 770.352,1520.43 c 0,45.51 -68.282,45.51 -68.282,0 0,-45.51 68.282,-45.51 68.282,0"
         transform="matrix(0.13333333,0,0,-0.13333333,0,1056)"
         clip-path="url(#clipPath3208-1)"
         style="fill:#fff99c;fill-opacity:1;stroke:#000000;stroke-opacity:1;stroke-width:7.50000028;stroke-dasharray:none" />
      <path
         class="spiral-led"
         id="led-1-7"
         data-row="1"
         data-col="7"
         d="m 899.961,1531.95 c 0,45.51 -68.281,45.51 -68.281,0 0,-45.5 68.281,-45.5 68.281,0"
         transform="matrix(0.13333333,0,0,-0.13333333,0,1056)"
         clip-path="url(#clipPath3210-0)"
         style="fill:#fff99c;fill-opacity:1;stroke:#000000;stroke-opacity:1;stroke-width:7.50000028;stroke-dasharray:none" />
      <path
         class="spiral-led"
         id="led-8-1"
         data-row="8"
         data-col="1"
         d="m 590.352,1148.2 c 0,45.51 -68.282,45.51 -68.282,0 0,-45.5 68.282,-45.5 68.282,0"
         transform="matrix(0.13333333,0,0,-0.13333333,0,1056)"
         clip-path="url(#clipPath3228-7)"
         style="fill:#fff99c;fill-opacity:1;stroke:#000000;stroke-opacity:1;stroke-width:7.50000028;stroke-dasharray:none" />
      <path
         class="spiral-led"
         id="led-8-2"
         data-row="8"
         data-col="2"
         d="m 634.262,1258.36 c 0,45.51 -68.242,45.51 -68.242,0 0,-45.51 68.242,-45.51 68.242,0"
         transform="matrix(0.13333333,0,0,-0.13333333,0,1056)"
         clip-path="url(#clipPath3230-0)"
         style="fill:#fff99c;fill-opacity:1;stroke:#000000;stroke-opacity:1;stroke-width:7.50000028;stroke-dasharray:none" />
      <path
         class="spiral-led"
         id="led-8-3"
         data-row="8"
         data-col="3"
         d="m 724.262,1338.28 c 0,45.51 -68.242,45.51 -68.242,0 0,-45.51 68.242,-45.51 68.242,0"
         transform="matrix(0.13333333,0,0,-0.13333333,0,1056)"
         clip-path="url(#clipPath3232-5)"
         style="fill:#fff99c;fill-opacity:1;stroke:#000000;stroke-opacity:1;stroke-width:7.50000028;stroke-dasharray:none" />
      <path
         class="spiral-led"
         id="led-8-4"
         data-row="8"
         data-col="4"
         d="m 831.559,1379.34 c 0,45.5 -68.278,45.5 -68.278,0 0,-45.51 68.278,-45.51 68.278,0"
         transform="matrix(0.13333333,0,0,-0.13333333,0,1056)"
         clip-path="url(#clipPath3234-1)"
         style="fill:#fff99c;fill-opacity:1;stroke:#000000;stroke-opacity:1;stroke-width:7.50000028;stroke-dasharray:none" />
      <path
         class="spiral-led"
         id="led-8-5"
         data-row="8"
         data-col="5"
         d="m 948.199,1377.15 c 0,45.55 -68.277,45.55 -68.277,0 0,-45.51 68.277,-45.51 68.277,0"
         transform="matrix(0.13333333,0,0,-0.13333333,0,1056)"
         clip-path="url(#clipPath3236-6)"
         style="fill:#fff99c;fill-opacity:1;stroke:#000000;stroke-opacity:1;stroke-width:7.50000028;stroke-dasharray:none" />
      <path
         class="spiral-led"
         id="led-8-6"
         data-row="8"
         data-col="6"
         d="m 1058.36,1330.35 c 0,45.51 -68.282,45.51 -68.282,0 0,-45.51 68.282,-45.51 68.282,0"
         transform="matrix(0.13333333,0,0,-0.13333333,0,1056)"
         clip-path="url(#clipPath3238-3)"
         style="fill:#fff99c;fill-opacity:1;stroke:#000000;stroke-opacity:1;stroke-width:7.50000028;stroke-dasharray:none" />
      <path
         class="spiral-led"
         id="led-8-7"
         data-row="8"
         data-col="7"
         d="m 1131.8,1250.43 c 0,45.51 -68.28,45.51 -68.28,0 0,-45.51 68.28,-45.51 68.28,0"
         transform="matrix(0.13333333,0,0,-0.13333333,0,1056)"
         clip-path="url(#clipPath3240-5)"
         style="fill:#fff99c;fill-opacity:1;stroke:#000000;stroke-opacity:1;stroke-width:7.50000028;stroke-dasharray:none" />
    </g>
    <rect
       class="center-led"
       id="led-center"
       width="18.791592"
       height="19.003853"
       x="-399.45349"
       y="722.40045"
       transform="matrix(0.26458333,0,0,0.26458333,177.40281,-48.738991)"
       style="stroke-width:1.00000001;stroke-dasharray:none" />
  </g>
  <g
     inkscape:groupmode="layer"
     id="layer2"
     inkscape:label="Layer 1">
    <rect
       style="display:inline;fill:#0000ff;fill-opacity:1;fill-rule:nonzero;stroke-width:0.246793;stroke-dasharray:none"
       id="rect4"
       width="2.2883105"
       height="2.3794301"
       x="15.198523"
       y="18.108889"
       inkscape:label="rect4" />
    <rect
       style="display:inline;fill:#ff0000;fill-opacity:1;fill-rule:nonzero;stroke-width:0.246793;stroke-dasharray:none"
       id="rect4-0"
       width="2.2883105"
       height="2.3794301"
       x="17.645311"
       y="18.115961"
       inkscape:label="rect4" />
    <rect
       style="display:inline;fill:#00ff00;fill-opacity:1;fill-rule:nonzero;stroke-width:0.246793;stroke-dasharray:none"
       id="rect4-0-8"
       width="2.2883105"
       height="2.3794301"
       x="16.455786"
       y="20.58742"
       inkscape:label="rect4" />
    <text
       xml:space="preserve"
       style="font-size:0.705556px;display:inline;fill:#000000;stroke-width:0.264583"
       x="14.448689"
       y="15.29065"
       id="text1"
       inkscape:transform-center-x="-1.7192973"
       inkscape:transform-center-y="0.17909347"><tspan
         sodipodi:role="line"
         id="tspan1"
         x="14.448689"
         y="15.29065"
         style="font-size:0.705556px;text-align:center;text-anchor:middle;stroke-width:0.264583">row 2</tspan><tspan
         sodipodi:role="line"
         x="14.448689"
         y="16.172594"
         id="tspan2"
         style="font-size:0.705556px;text-align:center;text-anchor:middle;stroke-width:0.264583">bit 1</tspan></text>
    <text
       xml:space="preserve"
       style="font-size:0.705556px;display:inline;fill:#000000;stroke-width:0.264583"
       x="18.693913"
       y="14.757382"
       id="text1-6"
       inkscape:transform-center-x="-1.7192973"
       inkscape:transform-center-y="0.17909347"><tspan
         sodipodi:role="line"
         id="tspan1-7"
         x="18.693913"
         y="14.757382"
         style="font-size:0.705556px;text-align:center;text-anchor:middle;stroke-width:0.264583">row 3</tspan><tspan
         sodipodi:role="line"
         x="18.693913"
         y="15.639327"
         id="tspan2-8"
         style="font-size:0.705556px;text-align:center;text-anchor:middle;stroke-width:0.264583">bit 1</tspan></text>
    <text
       xml:space="preserve"
       style="font-size:0.705556px;display:inline;fill:#000000;stroke-width:0.264583"
       x="22.265945"
       y="17.165035"
       id="text1-1"
       inkscape:transform-center-x="-1.7192973"
       inkscape:transform-center-y="0.17909347"><tspan
         sodipodi:role="line"
         id="tspan1-71"
         x="22.265945"
         y="17.165035"
         style="font-size:0.705556px;text-align:center;text-anchor:middle;stroke-width:0.264583">row 4</tspan><tspan
         sodipodi:role="line"
         x="22.265945"
         y="18.04698"
         id="tspan2-87"
         style="font-size:0.705556px;text-align:center;text-anchor:middle;stroke-width:0.264583">bit 1</tspan></text>
    <text
       xml:space="preserve"
       style="font-size:0.705556px;display:inline;fill:#000000;stroke-width:0.264583"
       x="22.629541"
       y="21.457651"
       id="text1-77"
       inkscape:transform-center-x="-1.7192973"
       inkscape:transform-center-y="0.17909347"><tspan
         sodipodi:role="line"
         id="tspan1-4"
         x="22.629541"
         y="21.457651"
         style="font-size:0.705556px;text-align:center;text-anchor:middle;stroke-width:0.264583">row 5</tspan><tspan
         sodipodi:role="line"
         x="22.629541"
         y="22.339596"
         id="tspan2-4"
         style="font-size:0.705556px;text-align:center;text-anchor:middle;stroke-width:0.264583">bit 1</tspan></text>
    <text
       xml:space="preserve"
       style="font-size:0.705556px;display:inline;fill:#000000;stroke-width:0.264583"
       x="20.744047"
       y="25.348467"
       id="text1-15"
       inkscape:transform-center-x="-1.7192973"
       inkscape:transform-center-y="0.17909347"><tspan
         sodipodi:role="line"
         id="tspan1-55"
         x="20.744047"
         y="25.348467"
         style="font-size:0.705556px;text-align:center;text-anchor:middle;stroke-width:0.264583">row 6</tspan><tspan
         sodipodi:role="line"
         x="20.744047"
         y="26.230412"
         id="tspan2-82"
         style="font-size:0.705556px;text-align:center;text-anchor:middle;stroke-width:0.264583">bit 1</tspan></text>
    <text
       xml:space="preserve"
       style="font-size:0.705556px;display:inline;fill:#000000;stroke-width:0.264583"
       x="16.505419"
       y="25.876873"
       id="text1-8"
       inkscape:transform-center-x="-1.7192973"
       inkscape:transform-center-y="0.17909347"><tspan
         sodipodi:role="line"
         id="tspan1-2"
         x="16.505419"
         y="25.876873"
         style="font-size:0.705556px;text-align:center;text-anchor:middle;stroke-width:0.264583">row 7</tspan><tspan
         sodipodi:role="line"
         x="16.505419"
         y="26.758818"
         id="tspan2-0"
         style="font-size:0.705556px;text-align:center;text-anchor:middle;stroke-width:0.264583">bit 1</tspan></text>
    <text
       xml:space="preserve"
       style="font-size:0.705556px;display:inline;fill:#000000;stroke-width:0.264583"
       x="12.922743"
       y="23.469866"
       id="text1-4"
       inkscape:transform-center-x="-1.7192973"
       inkscape:transform-center-y="0.17909347"><tspan
         sodipodi:role="line"
         x="12.922743"
         y="23.469866"
         style="font-size:0.705556px;text-align:center;text-anchor:middle;stroke-width:0.264583"
         id="tspan3">row 8</tspan><tspan
         sodipodi:role="line"
         x="12.922743"
         y="24.35181"
         id="tspan2-5"
         style="font-size:0.705556px;text-align:center;text-anchor:middle;stroke-width:0.264583">bit 1</tspan></text>
    <text
       xml:space="preserve"
       style="font-size:0.705556px;display:inline;fill:#000000;stroke-width:0.264583"
       x="12.583679"
       y="19.172293"
       id="text1-3"
       inkscape:transform-center-x="-1.7192973"
       inkscape:transform-center-y="0.17909347"><tspan
         sodipodi:role="line"
         id="tspan1-5"
         x="12.583679"
         y="19.172293"
         style="font-size:0.705556px;text-align:center;text-anchor:middle;stroke-width:0.264583">row 1</tspan><tspan
         sodipodi:role="line"
         x="12.583679"
         y="20.054237"
         id="tspan2-22"
         style="font-size:0.705556px;text-align:center;text-anchor:middle;stroke-width:0.264583">bit 1</tspan></text>
    <text
       xml:space="preserve"
       style="font-size:0.705556px;display:inline;fill:#000000;stroke-width:0.264583"
       x="10.276848"
       y="15.224214"
       id="text1-7"
       inkscape:transform-center-x="-1.7192973"
       inkscape:transform-center-y="0.17909347"><tspan
         sodipodi:role="line"
         id="tspan1-6"
         x="10.276848"
         y="15.224214"
         style="font-size:0.705556px;text-align:center;text-anchor:middle;stroke-width:0.264583">row 1</tspan><tspan
         sodipodi:role="line"
         x="10.276848"
         y="16.106157"
         id="tspan2-2"
         style="font-size:0.705556px;text-align:center;text-anchor:middle;stroke-width:0.264583">bit 2</tspan></text>
    <text
       xml:space="preserve"
       style="font-size:0.705556px;display:inline;fill:#000000;stroke-width:0.264583"
       x="11.034632"
       y="10.434939"
       id="text1-7-5"
       inkscape:transform-center-x="-1.7192973"
       inkscape:transform-center-y="0.17909347"><tspan
         sodipodi:role="line"
         id="tspan1-6-8"
         x="11.034632"
         y="10.434939"
         style="font-size:0.705556px;text-align:center;text-anchor:middle;stroke-width:0.264583">row 1</tspan><tspan
         sodipodi:role="line"
         x="11.034632"
         y="11.316884"
         id="tspan2-2-1"
         style="font-size:0.705556px;text-align:center;text-anchor:middle;stroke-width:0.264583">bit 3</tspan></text>
    <text
       xml:space="preserve"
       style="font-size:0.705556px;display:inline;fill:#000000;stroke-width:0.264583"
       x="13.396867"
       y="6.6252561"
       id="text1-7-7"
       inkscape:transform-center-x="-1.7192973"
       inkscape:transform-center-y="0.17909347"><tspan
         sodipodi:role="line"
         id="tspan1-6-1"
         x="13.396867"
         y="6.6252561"
         style="font-size:0.705556px;text-align:center;text-anchor:middle;stroke-width:0.264583">row 1</tspan><tspan
         sodipodi:role="line"
         x="13.396867"
         y="7.5072007"
         id="tspan2-2-3"
         style="font-size:0.705556px;text-align:center;text-anchor:middle;stroke-width:0.264583">bit 4</tspan></text>
    <text
       xml:space="preserve"
       style="font-size:0.705556px;display:inline;fill:#000000;stroke-width:0.264583"
       x="16.546238"
       y="3.7037609"
       id="text1-7-4"
       inkscape:transform-center-x="-1.7192973"
       inkscape:transform-center-y="0.17909347"><tspan
         sodipodi:role="line"
         id="tspan1-6-80"
         x="16.546238"
         y="3.7037609"
         style="font-size:0.705556px;text-align:center;text-anchor:middle;stroke-width:0.264583">row 1</tspan><tspan
         sodipodi:role="line"
         x="16.546238"
         y="4.5857053"
         id="tspan2-2-4"
         style="font-size:0.705556px;text-align:center;text-anchor:middle;stroke-width:0.264583">bit 5</tspan></text>
    <text
       xml:space="preserve"
       style="font-size:0.705556px;display:inline;fill:#000000;stroke-width:0.264583"
       x="25.385668"
       y="1.7483251"
       id="text1-7-0"
       inkscape:transform-center-x="-1.7192973"
       inkscape:transform-center-y="0.17909347"><tspan
         sodipodi:role="line"
         id="tspan1-6-3"
         x="25.385668"
         y="1.7483251"
         style="font-size:0.705556px;text-align:center;text-anchor:middle;stroke-width:0.264583">row 1</tspan><tspan
         sodipodi:role="line"
         x="25.385668"
         y="2.6302702"
         id="tspan2-2-2"
         style="font-size:0.705556px;text-align:center;text-anchor:middle;stroke-width:0.264583">bit 7</tspan></text>
    <text
       xml:space="preserve"
       style="font-size:0.705556px;display:inline;fill:#000000;stroke-width:0.264583"
       x="20.813332"
       y="2.1548569"
       id="text1-7-9"
       inkscape:transform-center-x="-1.7192973"
       inkscape:transform-center-y="0.17909347"><tspan
         sodipodi:role="line"
         id="tspan1-6-4"
         x="20.813332"
         y="2.1548569"
         style="font-size:0.705556px;text-align:center;text-anchor:middle;stroke-width:0.264583">row 1</tspan><tspan
         sodipodi:role="line"
         x="20.813332"
         y="3.0368021"
         id="tspan2-2-13"
         style="font-size:0.705556px;text-align:center;text-anchor:middle;stroke-width:0.264583">bit 6</tspan></text>
    <text
       xml:space="preserve"
       style="font-size:0.705556px;display:inline;fill:#000000;stroke-width:0.264583"
       x="16.333721"
       y="19.113607"
       id="text1-9"
       inkscape:transform-center-x="-1.7192973"
       inkscape:transform-center-y="0.17909347"><tspan
         sodipodi:role="line"
         id="tspan1-56"
         x="16.333721"
         y="19.113607"
         style="font-size:0.705556px;text-align:center;text-anchor:middle;stroke-width:0.264583">row 2</tspan><tspan
         sodipodi:role="line"
         x="16.333721"
         y="19.995552"
         id="tspan2-28"
         style="font-size:0.705556px;text-align:center;text-anchor:middle;stroke-width:0.264583">bit 8</tspan></text>
    <text
       xml:space="preserve"
       style="font-size:0.705556px;display:inline;fill:#000000;stroke-width:0.264583"
       x="18.784126"
       y="19.120682"
       id="text1-9-7"
       inkscape:transform-center-x="-1.7192973"
       inkscape:transform-center-y="0.17909347"><tspan
         sodipodi:role="line"
         id="tspan1-56-5"
         x="18.784126"
         y="19.120682"
         style="font-size:0.705556px;text-align:center;text-anchor:middle;stroke-width:0.264583">row 3</tspan><tspan
         sodipodi:role="line"
         x="18.784126"
         y="20.002626"
         id="tspan2-28-7"
         style="font-size:0.705556px;text-align:center;text-anchor:middle;stroke-width:0.264583">bit 8</tspan></text>
    <text
       xml:space="preserve"
       style="font-size:0.705556px;display:inline;fill:#000000;stroke-width:0.264583"
       x="17.585129"
       y="21.586794"
       id="text1-9-7-2"
       inkscape:transform-center-x="-1.7192973"
       inkscape:transform-center-y="0.17909347"><tspan
         sodipodi:role="line"
         id="tspan1-56-5-5"
         x="17.585129"
         y="21.586794"
         style="font-size:0.705556px;text-align:center;text-anchor:middle;stroke-width:0.264583">row 4</tspan><tspan
         sodipodi:role="line"
         x="17.585129"
         y="22.468739"
         id="tspan2-28-7-1"
         style="font-size:0.705556px;text-align:center;text-anchor:middle;stroke-width:0.264583">bit 8</tspan></text>
  </g>
</svg>
